<svg xmlns="http://www.w3.org/2000/svg" viewBox="0 0 32 32" width="32" height="32">
  <!-- Background circle -->
  <circle cx="16" cy="16" r="15" fill="#4285F4" stroke="#1A73E8" stroke-width="1"/>
  
  <!-- Camel silhouette in white -->
  <path d="M8 20 Q8 18 10 16 Q12 14 14 12 Q16 10 18 12 Q20 14 22 16 Q24 18 24 20 Q24 22 22 24 Q20 26 18 26 Q16 26 14 24 Q12 22 10 20 Q8 18 8 20 Z" fill="#FFFFFF"/>
  
  <!-- Camel hump -->
  <ellipse cx="16" cy="14" rx="3" ry="2" fill="#FFFFFF"/>
  
  <!-- Camel head -->
  <ellipse cx="16" cy="10" rx="2" ry="3" fill="#FFFFFF"/>
  
  <!-- Security shield overlay -->
  <path d="M16 4 L20 6 L20 10 L16 12 L12 10 L12 6 Z" fill="#34A853" stroke="#137333" stroke-width="0.5"/>
  <path d="M16 6 L18 7 L18 9 L16 10 L14 9 L14 7 Z" fill="#FFFFFF"/>
  
  <!-- CaMeL text -->
  <text x="16" y="28" text-anchor="middle" font-family="Arial, sans-serif" font-size="6" font-weight="bold" fill="#FFFFFF">CaMeL</text>
</svg>
